# xmcd CD database file
#
# Track frame offsets:
#	150
#	54322
#	96502
#	131870
#	163092
#
# Disc length: 2648 seconds
#
# Revision: 4
# Processed by: cddbd v1.5.2PL0 Copyright (c) Steve Scherf et al.
# Submitted via: CDex 1.70beta2
#
DISCID=430a5605
DTITLE=ザ・ダイソー - ネイチャーサウンド・リラクゼーション6 雨音の調べ
DYEAR=2003
DGENRE=Other
TTITLE0=ツゴイネルワイゼン
TTITLE1=ドリゴのセレナーデ
TTITLE2=G線上のアリア
TTITLE3=エリーゼのために
TTITLE4=雨だれ
EXTD=YEAR: 2003
EXTT0=
EXTT1=
EXTT2=
EXTT3=
EXTT4=
PLAYORDER=
